<svg version="1.1" viewBox="0.0 0.0 529.6167979002624 528.8293963254594" fill="none" stroke="none" stroke-linecap="square" stroke-miterlimit="10" xmlns:xlink="http://www.w3.org/1999/xlink" xmlns="http://www.w3.org/2000/svg"><clipPath id="p.0"><path d="m0 0l529.6168 0l0 528.8294l-529.6168 0l0 -528.8294z" clip-rule="nonzero"/></clipPath><g clip-path="url(#p.0)"><path fill="#000000" fill-opacity="0.0" d="m0 0l529.6168 0l0 528.8294l-529.6168 0z" fill-rule="evenodd"/><defs><radialGradient id="p.1" gradientUnits="userSpaceOnUse" gradientTransform="matrix(19.35169731512918 0.0 0.0 19.35169731512918 0.0 0.0)" spreadMethod="pad" cx="13.68344574382361" cy="13.663372494576072" fx="13.68344574382361" fy="13.663372494576072" r="19.35169792175293"><stop offset="0.0" stop-color="#51ab2a"/><stop offset="1.0" stop-color="#203e13"/></radialGradient></defs><path fill="url(#p.1)" d="m-0.005249344 264.40945l0 0c0 -146.24675 118.55641 -264.80316 264.80316 -264.80316l0 0c70.23016 0 137.58386 27.898825 187.24408 77.559044c49.660248 49.660225 77.55908 117.01395 77.55908 187.24411l0 0c0 146.24673 -118.55643 264.80313 -264.80316 264.80313l0 0c-146.24675 0 -264.80316 -118.5564 -264.80316 -264.80313z" fill-rule="evenodd"/><path stroke="#000000" stroke-width="1.8608923884514434" stroke-linejoin="round" stroke-linecap="butt" d="m-0.005249344 264.40945l0 0c0 -146.24675 118.55641 -264.80316 264.80316 -264.80316l0 0c70.23016 0 137.58386 27.898825 187.24408 77.559044c49.660248 49.660225 77.55908 117.01395 77.55908 187.24411l0 0c0 146.24673 -118.55643 264.80313 -264.80316 264.80313l0 0c-146.24675 0 -264.80316 -118.5564 -264.80316 -264.80313z" fill-rule="evenodd"/><path fill="#b6d7a8" d="m88.793396 264.40494l0 0c0 -97.2021 78.79788 -176.0 176.0 -176.0l0 0c46.6781 0 91.4444 18.5428 124.450806 51.549202c33.00638 33.00641 51.549194 77.77269 51.549194 124.45079l0 0c0 97.20212 -78.79788 176.0 -176.0 176.0l0 0c-97.20212 0 -176.0 -78.79788 -176.0 -176.0z" fill-rule="evenodd"/><path stroke="#000000" stroke-width="1.8608923884514434" stroke-linejoin="round" stroke-linecap="butt" d="m88.793396 264.40494l0 0c0 -97.2021 78.79788 -176.0 176.0 -176.0l0 0c46.6781 0 91.4444 18.5428 124.450806 51.549202c33.00638 33.00641 51.549194 77.77269 51.549194 124.45079l0 0c0 97.20212 -78.79788 176.0 -176.0 176.0l0 0c-97.20212 0 -176.0 -78.79788 -176.0 -176.0z" fill-rule="evenodd"/></g></svg>